<svg width="186" height="26" viewBox="0 0 186 26" fill="none" xmlns="http://www.w3.org/2000/svg">
<path d="M2.02273 24V0.727272H6.94318V10.9886H7.25L15.625 0.727272H21.5227L12.8864 11.1477L21.625 24H15.7386L9.36364 14.4318L6.94318 17.3864V24H2.02273ZM43.5511 0.727272V24H39.3011L29.1761 9.35227H29.0057V24H24.0852V0.727272H28.4034L38.4489 15.3636H38.6534V0.727272H43.5511ZM47.6165 0.727272H53.6847L60.0938 16.3636H60.3665L66.7756 0.727272H72.8438V24H68.071V8.85227H67.8778L61.8551 23.8864H58.6051L52.5824 8.79545H52.3892V24H47.6165V0.727272Z" fill="#0A0A1F" fill-opacity="0.95"/>
<path d="M90.3864 18.1818C90.3864 19.4242 90.1591 20.4924 89.7045 21.3864C89.25 22.2765 88.6269 22.9621 87.8352 23.4432C87.0473 23.9205 86.1515 24.1591 85.1477 24.1591C84.1402 24.1591 83.2405 23.9205 82.4489 23.4432C81.661 22.9621 81.0398 22.2746 80.5852 21.3807C80.1307 20.4867 79.9034 19.4205 79.9034 18.1818C79.9034 16.9394 80.1307 15.8731 80.5852 14.983C81.0398 14.089 81.661 13.4034 82.4489 12.9261C83.2405 12.4451 84.1402 12.2045 85.1477 12.2045C86.1515 12.2045 87.0473 12.4451 87.8352 12.9261C88.6269 13.4034 89.25 14.089 89.7045 14.983C90.1591 15.8731 90.3864 16.9394 90.3864 18.1818ZM88.6477 18.1818C88.6477 17.2348 88.4943 16.4375 88.1875 15.7898C87.8845 15.1383 87.4678 14.6458 86.9375 14.3125C86.411 13.9754 85.8144 13.8068 85.1477 13.8068C84.4773 13.8068 83.8788 13.9754 83.3523 14.3125C82.8258 14.6458 82.4091 15.1383 82.1023 15.7898C81.7992 16.4375 81.6477 17.2348 81.6477 18.1818C81.6477 19.1288 81.7992 19.928 82.1023 20.5795C82.4091 21.2273 82.8258 21.7197 83.3523 22.0568C83.8788 22.3902 84.4773 22.5568 85.1477 22.5568C85.8144 22.5568 86.411 22.3902 86.9375 22.0568C87.4678 21.7197 87.8845 21.2273 88.1875 20.5795C88.4943 19.928 88.6477 19.1288 88.6477 18.1818ZM96.2003 24.1761C95.3404 24.1761 94.5999 23.9924 93.9787 23.625C93.3613 23.2538 92.884 22.733 92.5469 22.0625C92.2135 21.3883 92.0469 20.5985 92.0469 19.6932C92.0469 18.7992 92.2135 18.0114 92.5469 17.3295C92.884 16.6477 93.3537 16.1155 93.956 15.733C94.562 15.3504 95.2704 15.1591 96.081 15.1591C96.5734 15.1591 97.0507 15.2405 97.5128 15.4034C97.9749 15.5663 98.3897 15.822 98.7571 16.1705C99.1245 16.5189 99.4143 16.9716 99.6264 17.5284C99.8385 18.0814 99.9446 18.7538 99.9446 19.5455V20.1477H93.0071V18.875H98.2798C98.2798 18.428 98.1889 18.0322 98.0071 17.6875C97.8253 17.339 97.5696 17.0644 97.2401 16.8636C96.9143 16.6629 96.5317 16.5625 96.0923 16.5625C95.6151 16.5625 95.1984 16.6799 94.8423 16.9148C94.4901 17.1458 94.2173 17.4489 94.0241 17.8239C93.8348 18.1951 93.7401 18.5985 93.7401 19.0341V20.0284C93.7401 20.6117 93.8423 21.108 94.0469 21.517C94.2552 21.9261 94.545 22.2386 94.9162 22.4545C95.2874 22.6667 95.7211 22.7727 96.2173 22.7727C96.5393 22.7727 96.8329 22.7273 97.098 22.6364C97.3632 22.5417 97.5923 22.4015 97.7855 22.2159C97.9787 22.0303 98.1264 21.8011 98.2287 21.5284L99.8366 21.8182C99.7079 22.2917 99.4768 22.7064 99.1435 23.0625C98.8139 23.4148 98.3991 23.6894 97.8991 23.8864C97.4029 24.0795 96.8366 24.1761 96.2003 24.1761ZM105.983 15.2727V16.6364H101.051V15.2727H105.983ZM102.403 24V14.2614C102.403 13.7159 102.523 13.2633 102.761 12.9034C103 12.5398 103.316 12.2689 103.71 12.0909C104.104 11.9091 104.532 11.8182 104.994 11.8182C105.335 11.8182 105.627 11.8466 105.869 11.9034C106.112 11.9564 106.292 12.0057 106.409 12.0511L106.011 13.4261C105.932 13.4034 105.83 13.3769 105.705 13.3466C105.58 13.3125 105.428 13.2955 105.25 13.2955C104.837 13.2955 104.542 13.3977 104.364 13.6023C104.189 13.8068 104.102 14.1023 104.102 14.4886V24H102.403ZM111.153 24.1761C110.294 24.1761 109.553 23.9924 108.932 23.625C108.314 23.2538 107.837 22.733 107.5 22.0625C107.167 21.3883 107 20.5985 107 19.6932C107 18.7992 107.167 18.0114 107.5 17.3295C107.837 16.6477 108.307 16.1155 108.909 15.733C109.515 15.3504 110.223 15.1591 111.034 15.1591C111.527 15.1591 112.004 15.2405 112.466 15.4034C112.928 15.5663 113.343 15.822 113.71 16.1705C114.078 16.5189 114.367 16.9716 114.58 17.5284C114.792 18.0814 114.898 18.7538 114.898 19.5455V20.1477H107.96V18.875H113.233C113.233 18.428 113.142 18.0322 112.96 17.6875C112.778 17.339 112.523 17.0644 112.193 16.8636C111.867 16.6629 111.485 16.5625 111.045 16.5625C110.568 16.5625 110.152 16.6799 109.795 16.9148C109.443 17.1458 109.17 17.4489 108.977 17.8239C108.788 18.1951 108.693 18.5985 108.693 19.0341V20.0284C108.693 20.6117 108.795 21.108 109 21.517C109.208 21.9261 109.498 22.2386 109.869 22.4545C110.241 22.6667 110.674 22.7727 111.17 22.7727C111.492 22.7727 111.786 22.7273 112.051 22.6364C112.316 22.5417 112.545 22.4015 112.739 22.2159C112.932 22.0303 113.08 21.8011 113.182 21.5284L114.79 21.8182C114.661 22.2917 114.43 22.7064 114.097 23.0625C113.767 23.4148 113.352 23.6894 112.852 23.8864C112.356 24.0795 111.79 24.1761 111.153 24.1761ZM118.482 18.8182V24H116.783V15.2727H118.413V16.6932H118.521C118.722 16.2311 119.036 15.8598 119.464 15.5795C119.896 15.2992 120.44 15.1591 121.095 15.1591C121.69 15.1591 122.211 15.2841 122.658 15.5341C123.105 15.7803 123.451 16.1477 123.697 16.6364C123.944 17.125 124.067 17.7292 124.067 18.4489V24H122.368V18.6534C122.368 18.0208 122.203 17.5265 121.874 17.1705C121.544 16.8106 121.091 16.6307 120.516 16.6307C120.122 16.6307 119.771 16.7159 119.464 16.8864C119.161 17.0568 118.921 17.3068 118.743 17.6364C118.569 17.9621 118.482 18.3561 118.482 18.8182ZM130.107 24.1761C129.247 24.1761 128.506 23.9924 127.885 23.625C127.268 23.2538 126.79 22.733 126.453 22.0625C126.12 21.3883 125.953 20.5985 125.953 19.6932C125.953 18.7992 126.12 18.0114 126.453 17.3295C126.79 16.6477 127.26 16.1155 127.862 15.733C128.468 15.3504 129.177 15.1591 129.987 15.1591C130.48 15.1591 130.957 15.2405 131.419 15.4034C131.881 15.5663 132.296 15.822 132.663 16.1705C133.031 16.5189 133.321 16.9716 133.533 17.5284C133.745 18.0814 133.851 18.7538 133.851 19.5455V20.1477H126.913V18.875H132.186C132.186 18.428 132.095 18.0322 131.913 17.6875C131.732 17.339 131.476 17.0644 131.146 16.8636C130.821 16.6629 130.438 16.5625 129.999 16.5625C129.521 16.5625 129.105 16.6799 128.749 16.9148C128.396 17.1458 128.124 17.4489 127.93 17.8239C127.741 18.1951 127.646 18.5985 127.646 19.0341V20.0284C127.646 20.6117 127.749 21.108 127.953 21.517C128.161 21.9261 128.451 22.2386 128.822 22.4545C129.194 22.6667 129.627 22.7727 130.124 22.7727C130.446 22.7727 130.739 22.7273 131.004 22.6364C131.269 22.5417 131.499 22.4015 131.692 22.2159C131.885 22.0303 132.033 21.8011 132.135 21.5284L133.743 21.8182C133.614 22.2917 133.383 22.7064 133.05 23.0625C132.72 23.4148 132.305 23.6894 131.805 23.8864C131.309 24.0795 130.743 24.1761 130.107 24.1761ZM136.874 15.2727L138.8 18.6705L140.743 15.2727H142.601L139.879 19.6364L142.624 24H140.766L138.8 20.7386L136.839 24H134.976L137.692 19.6364L135.01 15.2727H136.874ZM146.869 24.1932C146.316 24.1932 145.816 24.0909 145.369 23.8864C144.922 23.678 144.568 23.3769 144.307 22.983C144.049 22.589 143.92 22.1061 143.92 21.5341C143.92 21.0417 144.015 20.6364 144.205 20.3182C144.394 20 144.65 19.7481 144.972 19.5625C145.294 19.3769 145.653 19.2367 146.051 19.142C146.449 19.0473 146.854 18.9754 147.267 18.9261C147.79 18.8655 148.214 18.8163 148.54 18.7784C148.866 18.7367 149.102 18.6705 149.25 18.5795C149.398 18.4886 149.472 18.3409 149.472 18.1364V18.0966C149.472 17.6004 149.331 17.2159 149.051 16.9432C148.775 16.6705 148.362 16.5341 147.812 16.5341C147.241 16.5341 146.79 16.661 146.46 16.9148C146.134 17.1648 145.909 17.4432 145.784 17.75L144.188 17.3864C144.377 16.8561 144.653 16.428 145.017 16.1023C145.384 15.7727 145.807 15.5341 146.284 15.3864C146.761 15.2348 147.263 15.1591 147.79 15.1591C148.138 15.1591 148.508 15.2008 148.898 15.2841C149.292 15.3636 149.659 15.5114 150 15.7273C150.345 15.9432 150.627 16.2519 150.847 16.6534C151.066 17.0511 151.176 17.5682 151.176 18.2045V24H149.517V22.8068H149.449C149.339 23.0265 149.174 23.2424 148.955 23.4545C148.735 23.6667 148.453 23.8428 148.108 23.983C147.763 24.1231 147.35 24.1932 146.869 24.1932ZM147.239 22.8295C147.708 22.8295 148.11 22.7367 148.443 22.5511C148.78 22.3655 149.036 22.1231 149.21 21.8239C149.388 21.5208 149.477 21.197 149.477 20.8523V19.7273C149.417 19.7879 149.299 19.8447 149.125 19.8977C148.955 19.947 148.759 19.9905 148.54 20.0284C148.32 20.0625 148.106 20.0947 147.898 20.125C147.689 20.1515 147.515 20.1742 147.375 20.1932C147.045 20.2348 146.744 20.3049 146.472 20.4034C146.203 20.5019 145.987 20.6439 145.824 20.8295C145.665 21.0114 145.585 21.2538 145.585 21.5568C145.585 21.9773 145.741 22.2955 146.051 22.5114C146.362 22.7235 146.758 22.8295 147.239 22.8295ZM153.439 24V15.2727H155.07V16.6932H155.178C155.359 16.2121 155.657 15.8371 156.07 15.5682C156.482 15.2955 156.977 15.1591 157.553 15.1591C158.136 15.1591 158.625 15.2955 159.018 15.5682C159.416 15.8409 159.71 16.2159 159.899 16.6932H159.99C160.198 16.2273 160.53 15.8561 160.984 15.5795C161.439 15.2992 161.981 15.1591 162.609 15.1591C163.401 15.1591 164.047 15.4072 164.547 15.9034C165.051 16.3996 165.303 17.1477 165.303 18.1477V24H163.604V18.3068C163.604 17.7159 163.443 17.2879 163.121 17.0227C162.799 16.7576 162.414 16.625 161.967 16.625C161.414 16.625 160.984 16.7955 160.678 17.1364C160.371 17.4735 160.217 17.9072 160.217 18.4375V24H158.524V18.1989C158.524 17.7254 158.376 17.3447 158.081 17.0568C157.786 16.7689 157.401 16.625 156.928 16.625C156.606 16.625 156.308 16.7102 156.036 16.8807C155.767 17.0473 155.549 17.2803 155.382 17.5795C155.219 17.8788 155.138 18.2254 155.138 18.6193V24H153.439ZM171.341 24.1761C170.481 24.1761 169.741 23.9924 169.119 23.625C168.502 23.2538 168.025 22.733 167.688 22.0625C167.354 21.3883 167.188 20.5985 167.188 19.6932C167.188 18.7992 167.354 18.0114 167.688 17.3295C168.025 16.6477 168.494 16.1155 169.097 15.733C169.703 15.3504 170.411 15.1591 171.222 15.1591C171.714 15.1591 172.191 15.2405 172.653 15.4034C173.116 15.5663 173.53 15.822 173.898 16.1705C174.265 16.5189 174.555 16.9716 174.767 17.5284C174.979 18.0814 175.085 18.7538 175.085 19.5455V20.1477H168.148V18.875H173.42C173.42 18.428 173.33 18.0322 173.148 17.6875C172.966 17.339 172.71 17.0644 172.381 16.8636C172.055 16.6629 171.672 16.5625 171.233 16.5625C170.756 16.5625 170.339 16.6799 169.983 16.9148C169.631 17.1458 169.358 17.4489 169.165 17.8239C168.975 18.1951 168.881 18.5985 168.881 19.0341V20.0284C168.881 20.6117 168.983 21.108 169.188 21.517C169.396 21.9261 169.686 22.2386 170.057 22.4545C170.428 22.6667 170.862 22.7727 171.358 22.7727C171.68 22.7727 171.973 22.7273 172.239 22.6364C172.504 22.5417 172.733 22.4015 172.926 22.2159C173.119 22.0303 173.267 21.8011 173.369 21.5284L174.977 21.8182C174.848 22.2917 174.617 22.7064 174.284 23.0625C173.955 23.4148 173.54 23.6894 173.04 23.8864C172.544 24.0795 171.977 24.1761 171.341 24.1761ZM178.669 18.8182V24H176.97V15.2727H178.601V16.6932H178.709C178.91 16.2311 179.224 15.8598 179.652 15.5795C180.084 15.2992 180.627 15.1591 181.283 15.1591C181.877 15.1591 182.398 15.2841 182.845 15.5341C183.292 15.7803 183.639 16.1477 183.885 16.6364C184.131 17.125 184.254 17.7292 184.254 18.4489V24H182.555V18.6534C182.555 18.0208 182.391 17.5265 182.061 17.1705C181.732 16.8106 181.279 16.6307 180.703 16.6307C180.309 16.6307 179.959 16.7159 179.652 16.8864C179.349 17.0568 179.108 17.3068 178.93 17.6364C178.756 17.9621 178.669 18.3561 178.669 18.8182Z" fill="#0A0A1F" fill-opacity="0.95"/>
</svg>
